<?xml version="1.0" encoding="UTF-8"?>
<svg width="26px" height="26px" viewBox="0 0 26 26" version="1.1" xmlns="http://www.w3.org/2000/svg" xmlns:xlink="http://www.w3.org/1999/xlink">
    <!-- Generator: Sketch 52.5 (67469) - http://www.bohemiancoding.com/sketch -->
    <title>Combined Shape</title>
    <desc>Created with Sketch.</desc>
    <g id="Page-1" stroke="none" stroke-width="1" fill="none" fill-rule="evenodd">
        <path d="M8.44827586,2 C4.88974526,2 2,4.88974526 2,8.44827586 L2,17.5517241 C2,21.1102547 4.88974526,24 8.44827586,24 L17.5517241,24 C21.1102547,24 24,21.1102547 24,17.5517241 L24,8.44827586 C24,4.88974526 21.1102547,2 17.5517241,2 L8.44827586,2 Z M8.44827586,0 L17.5517241,0 C22.2148242,0 26,3.78517576 26,8.44827586 L26,17.5517241 C26,22.2148242 22.2148242,26 17.5517241,26 L8.44827586,26 C3.78517576,26 0,22.2148242 0,17.5517241 L0,8.44827586 C0,3.78517576 3.78517576,0 8.44827586,0 Z M13,20.2068966 C9.01974094,20.2068966 5.79310345,16.9802591 5.79310345,13 C5.79310345,9.01974094 9.01974094,5.79310345 13,5.79310345 C16.9802591,5.79310345 20.2068966,9.01974094 20.2068966,13 C20.2068966,16.9802591 16.9802591,20.2068966 13,20.2068966 Z M13,18.2068966 C15.8756896,18.2068966 18.2068966,15.8756896 18.2068966,13 C18.2068966,10.1243104 15.8756896,7.79310345 13,7.79310345 C10.1243104,7.79310345 7.79310345,10.1243104 7.79310345,13 C7.79310345,15.8756896 10.1243104,18.2068966 13,18.2068966 Z M19.6206897,7.62068966 C18.9350948,7.62068966 18.3793103,7.06490521 18.3793103,6.37931034 C18.3793103,5.69371548 18.9350948,5.13793103 19.6206897,5.13793103 C20.3062845,5.13793103 20.862069,5.69371548 20.862069,6.37931034 C20.862069,7.06490521 20.3062845,7.62068966 19.6206897,7.62068966 Z" id="Combined-Shape" fill="#00001A" fill-rule="nonzero"></path>
    </g>
</svg>