<?xml version="1.0" encoding="UTF-8"?>
<svg width="95px" height="95px" viewBox="0 0 95 95" version="1.1" xmlns="http://www.w3.org/2000/svg" xmlns:xlink="http://www.w3.org/1999/xlink">
    <!-- Generator: Sketch 52.5 (67469) - http://www.bohemiancoding.com/sketch -->
    <title>Electrolux</title>
    <desc>Created with Sketch.</desc>
    <g id="Page-1" stroke="none" stroke-width="1" fill="none" fill-rule="evenodd">
        <path d="M94.9298552,92.4905093 C94.9298552,62.4367289 94.9298552,32.4130022 94.9298552,2.41932933 C95.0705723,1.60834364 94.9987796,0.774275773 94.7216105,0 L0,0 L0,95 L94.9893537,95 C94.9744791,94.1584941 94.9298552,93.3320152 94.9298552,92.4905093 Z M56.4167944,88.2604387 C30.7026102,94.2319364 5.95624407,73.5556256 5.64356436,49.8338509 C30.9557318,46.6241709 50.2078686,61.6872738 55.3000811,79.6913395 C56.1499699,82.4644871 56.5274978,85.3614474 56.4167944,88.2604387 Z M52.27711,21.8160836 C43.9321597,36.3753239 31.2287951,43.8569479 14.5686449,44.590147 C11.593618,44.7248162 8.61859119,44.590147 5.64356436,44.590147 C7.17570318,19.1526255 31.5857984,-0.0751481962 56.4272724,5.82037151 C56.5595611,11.4379313 55.1216328,16.9800487 52.27711,21.8160836 Z M60.1980198,87.4 L60.1980198,7.6 C73.0282043,10.8599021 88.9719272,25.1914533 89.3479584,46.6587349 C89.7841546,69.0874623 73.2989468,83.7945783 60.2581848,87.4 L60.1980198,87.4 Z" id="Electrolux" fill="#00001A" fill-rule="nonzero"></path>
    </g>
</svg>