<?xml version="1.0" encoding="UTF-8"?>
<svg width="33px" height="33px" viewBox="0 0 33 33" version="1.1" xmlns="http://www.w3.org/2000/svg" xmlns:xlink="http://www.w3.org/1999/xlink">
    <title>github</title>
    <g id="Page-1" stroke="none" stroke-width="1" fill="none" fill-rule="evenodd">
        <g id="github">
            <rect id="Rectangle" x="0" y="0" width="33" height="33"></rect>
            <path d="M16.4984806,-7.10542736e-15 C7.38825624,-7.10542736e-15 0,7.38724332 0,16.5005065 C0,23.7905092 4.727309,29.9744007 11.2839559,32.1562356 C12.1094877,32.308174 12.4103257,31.798674 12.4103257,31.3610915 C12.4103257,30.9701034 12.3961448,29.9318579 12.3880414,28.5552964 C7.79848982,29.552012 6.83013598,26.3430738 6.83013598,26.3430738 C6.07956045,24.4367537 4.99775929,23.9292796 4.99775929,23.9292796 C3.49964701,22.9062279 5.11120661,22.9264864 5.11120661,22.9264864 C6.76733479,23.0429725 7.63844808,24.6271832 7.63844808,24.6271832 C9.11022438,27.1483471 11.5007213,26.4200559 12.4407133,25.9976672 C12.5906259,24.9320728 13.0170662,24.2047945 13.4880751,23.7925351 C9.82433469,23.3762239 5.97219067,21.9601584 5.97219067,15.6374965 C5.97219067,13.8365205 6.61539642,12.3627183 7.6708616,11.2100126 C7.50069063,10.7926885 6.93446699,9.11427607 7.83292919,6.84330397 C7.83292919,6.84330397 9.21759416,6.39964394 12.3698088,8.53488443 C13.685595,8.16820651 15.0976089,7.98588048 16.5005065,7.97879002 C17.9023911,7.98588048 19.3133921,8.16820651 20.6312041,8.53488443 C23.7813929,6.39964394 25.164032,6.84330397 25.164032,6.84330397 C26.0645201,9.11427607 25.4982964,10.7926885 25.3291384,11.2100126 C26.3866294,12.3627183 27.0247706,13.8365205 27.0247706,15.6374965 C27.0247706,21.9763651 23.166549,23.3711593 19.4916664,23.7793671 C20.0832131,24.2888671 20.6109457,25.295712 20.6109457,26.8353541 C20.6109457,29.0404862 20.5906873,30.8201909 20.5906873,31.3610915 C20.5906873,31.8027257 20.8884864,32.3162774 21.7251604,32.1552227 C28.2767427,29.9683232 33,23.7884834 33,16.5005065 C33,7.38724332 25.6117438,-7.10542736e-15 16.4984806,-7.10542736e-15" id="Fill-4" fill="#00001A"></path>
        </g>
    </g>
</svg>
