<?xml version="1.0" encoding="UTF-8"?>
<svg width="100px" height="100px" viewBox="0 0 100 100" version="1.1" xmlns="http://www.w3.org/2000/svg" xmlns:xlink="http://www.w3.org/1999/xlink">
    <!-- Generator: Sketch 53.2 (72643) - https://sketchapp.com -->
    <title>happy</title>
    <desc>Created with Sketch.</desc>
    <g id="Page-1" stroke="none" stroke-width="1" fill="none" fill-rule="evenodd">
        <g id="happy" fill-rule="nonzero">
            <circle id="Oval" fill="#F7B239" cx="50.0007782" cy="49.8062257" r="49.8062257"></circle>
            <g id="Group" transform="translate(0.000000, 10.311284)" fill="#E09B2D">
                <path d="M23.8324903,65.6616732 C5.91575875,47.7445525 4.50389105,19.5735409 19.5959144,0.039688716 C17.9241245,1.3311284 16.3155642,2.74299611 14.7821012,4.27645914 C-4.66809339,23.7266537 -4.66809339,55.2618677 14.7821012,74.7118677 C34.2322957,94.1618677 65.7675097,94.1620623 85.2175097,74.7118677 C86.7507782,73.1785992 88.1626459,71.5698444 89.4542802,69.8980545 C69.9206226,84.9902724 41.7496109,83.5784047 23.8324903,65.6616732 Z" id="Path"></path>
                <path d="M50.0001946,68.7157588 C47.0229572,68.7157588 44.0470817,68.3101167 41.1529183,67.4988327 C40.1714008,67.2237354 39.5986381,66.2046693 39.8737354,65.2227626 C40.1488327,64.2412451 41.1678988,63.6678988 42.1496109,63.9435798 C47.2856031,65.383463 52.7151751,65.383463 57.8511673,63.9435798 C58.833463,63.6688716 59.851751,64.2412451 60.1270428,65.2227626 C60.4021401,66.2042802 59.8293774,67.2233463 58.8478599,67.4986381 C55.9536965,68.3101167 52.9764591,68.7157588 50.0001946,68.7157588 Z" id="Path"></path>
            </g>
            <g id="Group" transform="translate(21.011673, 31.128405)" fill="#4D4D4D">
                <path d="M54.0274319,26.6916342 C40.2202335,40.498249 17.7548638,40.4978599 3.94922179,26.6916342 C3.22801556,25.9706226 2.05933852,25.9706226 1.33832685,26.6916342 C0.617315175,27.4126459 0.617315175,28.5815175 1.33832685,29.3021401 C8.96245136,36.92607 18.9735409,40.7367704 28.9883268,40.7367704 C39.0005837,40.7367704 49.0159533,36.9243191 56.6383268,29.3021401 C57.3593385,28.5811284 57.3593385,27.4122568 56.6383268,26.6916342 C55.9173152,25.9708171 54.7486381,25.970428 54.0274319,26.6916342 Z" id="Path"></path>
                <path d="M6.94046693,13.8293774 C10.7066148,13.8293774 13.7706226,10.7653696 13.7706226,6.99922179 C13.7706226,3.23307393 10.7066148,0.169066148 6.94046693,0.169066148 C3.17431907,0.169066148 0.110311284,3.23307393 0.110311284,6.99922179 C0.110311284,10.7653696 3.17431907,13.8293774 6.94046693,13.8293774 Z" id="Path"></path>
                <path d="M51.0361868,0.1692607 C47.2700389,0.1692607 44.2060311,3.23326848 44.2060311,6.99941634 C44.2060311,10.7655642 47.2700389,13.829572 51.0361868,13.829572 C54.8023346,13.829572 57.8663424,10.7655642 57.8663424,6.99941634 C57.8663424,3.23326848 54.8023346,0.1692607 51.0361868,0.1692607 Z" id="Path"></path>
            </g>
        </g>
    </g>
</svg>