<svg xmlns="http://www.w3.org/2000/svg" viewBox="0 0 564 564"><defs><style>.cls-1{fill:none;stroke:#000000;stroke-linejoin:round;stroke-width:14px;}</style></defs><title>Asset 3</title><g id="Layer_2" data-name="Layer 2"><g id="Livello_1" data-name="Livello 1"><path class="cls-1" d="M282,56.57c73.43,0,82.13.27,111.15,1.6,74.52,3.39,109.33,38.76,112.72,112.73,1.33,29,1.58,37.7,1.58,111.12s-.27,82.14-1.58,111.13c-3.41,73.9-38.13,109.33-112.72,112.72-29,1.33-37.68,1.61-111.15,1.61s-82.13-.28-111.12-1.61C96.17,502.46,61.54,466.94,58.15,393.12c-1.33-29-1.6-37.67-1.6-111.12s.29-82.11,1.6-111.12C61.56,96.93,96.28,61.54,170.88,58.15c29-1.31,37.7-1.58,111.12-1.58Z"/><path class="cls-1" d="M282,7c-74.69,0-84,.32-113.37,1.65-99.87,4.58-155.37,60-160,160C7.32,198,7,207.31,7,282s.32,84.06,1.65,113.39c4.58,99.87,60,155.38,160,160C198,556.68,207.31,557,282,557s84.06-.32,113.39-1.65c99.78-4.58,155.42-60,159.94-160C556.68,366.06,557,356.69,557,282s-.32-84-1.65-113.37c-4.49-99.78-60-155.37-159.94-160C366.06,7.32,356.69,7,282,7Z"/><path class="cls-1" d="M282,140.79A141.23,141.23,0,1,0,423.21,282,141.21,141.21,0,0,0,282,140.79Z"/><circle class="cls-1" cx="282" cy="282" r="91.67"/><path class="cls-1" d="M428.8,102.22a33,33,0,1,0,33,33A33,33,0,0,0,428.8,102.22Z"/></g></g></svg>
