<?xml version="1.0" encoding="utf-8"?>
<svg version="1.1" xmlns="http://www.w3.org/2000/svg" xmlns:xlink="http://www.w3.org/1999/xlink" height="23.963134765625" width="24">
  <defs>
    <path id="path-0" opacity="1" fill-rule="evenodd" d="M0,2.9031982421875 C0,1.3009033203125 1.3008880615234375,0 2.903228759765625,0 C4.50555419921875,0 5.80645751953125,1.3009033203125 5.80645751953125,2.9031982421875 C5.80645751953125,4.50555419921875 4.50555419921875,5.80645751953125 2.903228759765625,5.80645751953125 C1.3008880615234375,5.80645751953125 0,4.50555419921875 0,2.9031982421875 L0,2.9031982421875ZM0.4792633056640625,23.963134765625 L0.4792633056640625,8.0184326171875 L5.4377899169921875,8.0184326171875 L5.4377899169921875,23.963134765625 L0.4792633056640625,23.963134765625 L0.4792633056640625,23.963134765625Z"/>
    <path id="path-1" opacity="1" fill-rule="evenodd" d="M8.552995391705224,8.018433179723516 L13.299539170506979,8.018433179723516 L13.364055299539235,10.202764976958559 C14.027649769585302,8.949308755760388 15.640552995391724,7.631336405529964 18.055299539170477,7.631336405529964 C23.069124423963007,7.631336405529964 23.999999999999858,10.930875576036911 23.999999999999858,15.225806451612993 L23.999999999999858,23.963133640553167 L19.050691244239587,23.963133640553167 L19.050691244239587,16.21198156682037 C19.050691244239587,14.359447004608366 19.02304147465433,11.981566820276552 16.479262672811068,11.981566820276552 C13.898617511520793,11.981566820276552 13.511520737327253,14.000000000000071 13.511520737327253,16.0737327188941 L13.511520737327253,23.963133640553167 L8.56221198156698,23.963133640553167 L8.552995391705224,8.018433179723516Z"/>
  </defs>
  <g opacity="1">
    <g opacity="1">
      <use xlink:href="#path-0" fill="#00001A" fill-opacity="1"/>
    </g>
    <g opacity="1">
      <use xlink:href="#path-1" fill="#00001A" fill-opacity="1"/>
    </g>
  </g>
</svg>
