<svg xmlns="http://www.w3.org/2000/svg" width="202.869" height="45.894" viewBox="0 0 202.869 45.894">
  <g>
    <ellipse cx="72.345" cy="23.147" fill="rgb(0,0,0)" rx="23.456" ry="22.748"/>
    <path fill="rgb(0,0,0)" fill-rule="evenodd" d="M132.37158203 1.19592285c2.46875.57470703 4.56213379 2.43475342 5.30981445 5.04211426l3.8026123 13.26123047 7.83276368-14.73132324c1.87005615-3.51696778 6.24359131-4.85412598 9.76055908-2.98406983 3.51696778 1.86999512 4.85412598 6.24353028 2.98413086 9.76055908l-15.838562 29.78796387c-1.03344727 1.94360352-2.83148194 3.22149658-4.82696534 3.66021729-.03363037.01019287-.06738281.0201416-.10125733.02984619-3.82891845 1.09790039-7.82891845-1.11932373-8.92681884-4.94824219l-4.36657715-15.22808838-10.9329834 17.49645996c-1.67242432 2.67645264-4.81713867 3.87805176-7.73138428 3.21191406-3.10809326-.33587646-5.71466064-2.74346923-6.1694336-5.97906494l-4.2614746-30.32183838c-.53704834-3.82116699 2.1293335-7.35949707 5.95050049-7.8965454 3.82122802-.53704835 7.3595581 2.12927245 7.8965454 5.95050048l1.68688966 12.00274658 9.44714355-15.1185913c1.81768799-2.90887452 5.37463379-4.07574463 8.48449707-2.99578858z"/>
    <path fill="rgb(0,0,0)" fill-rule="evenodd" d="M9.22109985 1.78607178c.30279541-.27813721.63531494-.53240967.99649048-.75811768 3.16687012-1.97888183 7.34451294-1.0144043 9.32339478 2.15246582l11.36096191 18.18133545L34.12316895 6.2070923c.7763977-3.65264893 4.37225341-5.987854 8.02493286-5.21142579 3.65264892.77642823 5.98782348 4.37225342 5.21142578 8.02490235L40.8067932 39.84881592c-.72311401 3.40197754-3.89196777 5.66113281-7.27459717 5.32788086-2.23791503-.01757813-4.42019653-1.14337158-5.69296264-3.18017578L16.64266968 24.07824707 13.38534546 39.402771c-.7763977 3.65264892-4.37225342 5.987854-8.02493286 5.21142578-3.65264893-.77636719-5.98782349-4.37225342-5.21142578-8.02490235L6.70172119 5.76104736C7.052063 4.112854 7.97644043 2.73291016 9.22109985 1.78607178z"/>
    <path fill="rgb(0,0,0)" fill-rule="evenodd" d="M187.30023193 1.42388916c-.22253418-.09820557-.4685669-.152771-.72723388-.152771h-17.3548584c-.99578858 0-1.80426026.80847168-1.80426026 1.80426026 0 .9958496.80847168 1.80432129 1.80426026 1.80432129h6.647583v16.01672363c0 .99578857.80847169 1.80426025 1.80426026 1.80426025.99584961 0 1.80432129-.80847168 1.80432129-1.80426025V4.87969971h6.3864746l6.47094727 16.85736084c.28717041.7481079 1.01959229 1.19537353 1.77911377 1.15557861.75952149.03979492 1.49194336-.4074707 1.77905274-1.15557861l6.85882568-17.86779785c.35687256-.92962647-.10821533-1.9741211-1.0378418-2.33099366-.9296875-.35687256-1.97418212.1081543-2.33105468 1.0378418l-5.26898194 13.72625732-5.26904297-13.72625732c-.25708007-.66967773-.8708496-1.0982666-1.54156494-1.15222168z"/>
  </g>
</svg>
