<?xml version="1.0" encoding="UTF-8"?>
<svg width="100px" height="76px" viewBox="0 0 100 76" version="1.1" xmlns="http://www.w3.org/2000/svg" xmlns:xlink="http://www.w3.org/1999/xlink">
    <!-- Generator: Sketch 52.5 (67469) - http://www.bohemiancoding.com/sketch -->
    <title>Trenord</title>
    <desc>Created with Sketch.</desc>
    <g id="Page-1" stroke="none" stroke-width="1" fill="none" fill-rule="evenodd">
        <path d="M87.5269231,0 L87.5307692,6.40513283e-16 C93.9923077,6.40513283e-16 99.15,5.49615385 99.0461538,12.2346154 C99.0269231,13.3807692 98.8576923,14.4461538 98.5961538,15.4730769 L85.0769231,65.5384615 C83.870636,69.6417047 80.9232176,73.008174 77.0153846,74.7461538 C75.3923077,75.4269231 73.6807692,75.7346154 71.95,75.7346154 L58.2884615,75.7346154 C62.5576923,73.4653846 65.1538462,68.8923077 65.1923077,65.0923077 L65.1923077,64.4923077 C65.1038462,55.1461538 53.4538462,24.0192308 13.8153846,10.4846154 L13.9,10.1961538 C15.1031821,6.08807612 18.0591835,2.72104985 21.9769231,0.996153846 C23.5961538,0.315384615 25.3346154,0 27.0346154,0 L87.5269231,0 Z M58.4423077,61.4115385 C58.2884615,78.6961538 17.9692308,72.6615385 -3.55271368e-15,61.9076923 C-3.55271368e-15,61.9076923 0.0384615385,61.9076923 0.0384615385,61.8692308 L8.30769231,31.1846154 L8.35769231,30.9884615 C25.3346154,34.6576923 34.5423077,32.5384615 35.9384615,30.95 C36.9600692,31.7030886 37.9666765,32.4763169 38.9576923,33.2692308 C45.4692308,39.1769231 58.5538462,50.6269231 58.4423077,61.4115385 Z" id="Trenord" fill="#00001A"></path>
    </g>
</svg>