<?xml version="1.0" encoding="UTF-8"?>
<svg width="100px" height="100px" viewBox="0 0 100 100" version="1.1" xmlns="http://www.w3.org/2000/svg" xmlns:xlink="http://www.w3.org/1999/xlink">
    <!-- Generator: Sketch 52.5 (67469) - http://www.bohemiancoding.com/sketch -->
    <title>Vodafone</title>
    <desc>Created with Sketch.</desc>
    <g id="Page-1" stroke="none" stroke-width="1" fill="none" fill-rule="evenodd">
        <path d="M71.0879237,4.65140347 C45.060976,3.31414111 22.3259762,23.3593949 22.3259762,46.3497453 C22.3259762,58.2342954 25.721562,62.4819162 29.286927,67.6570458 L29.2096143,67.4766497 C34.0935972,73.8457917 41.8171353,77.9964154 50.5093379,77.9964154 C65.2775633,77.9964154 77.4193548,66.0149395 77.4193548,51.5280136 C77.4193548,37.0418914 66.4652624,27.6630328 55.0074395,25.6872871 C55.0081392,25.6137398 55.008489,25.5402751 55.008489,25.466893 C55.008489,8.87577451 69.7801399,5.008347 71.15738,4.68382198 C88.1959287,12.6524968 100,29.9477541 100,50 C100,77.6142375 77.6142375,100 50,100 C22.3857625,100 0,77.6142375 0,50 C0,22.3857625 22.3857625,0 50,0 C57.5347558,0 64.6802449,1.66664899 71.0879237,4.65140347 Z" id="Vodafone" fill="#00001A" fill-rule="nonzero"></path>
    </g>
</svg>